<svg width="1067" height="250" viewBox="0 0 1067 250" fill="none" xmlns="http://www.w3.org/2000/svg">
<path d="M122.665 250L122.293 249.981C113.335 249.571 105.33 248.724 97.7923 247.39C94.9906 246.895 92.2461 246.324 89.6254 245.695L89.2347 245.6L88.8631 245.457C79.5717 241.799 68.7365 237.323 58.7209 231.799C56.3385 230.484 53.5749 228.856 51.1449 226.732L50.9352 226.532C47.981 223.674 44.922 220.883 41.682 217.921C34.8111 211.635 27.702 205.139 21.5173 197.948C19.4398 195.482 17.7436 193.139 16.276 190.729L16.1712 190.548C12.3212 183.652 9.0335 176.537 6.40333 169.384C5.50754 166.879 4.61176 164.184 4.05904 161.184L3.97328 160.479C3.84939 158.355 3.63974 156.098 3.31573 153.583C3.24903 152.983 3.17279 152.431 3.10608 151.888C2.85831 149.916 2.60101 147.878 2.48666 145.725C2.36277 143.554 2.16265 141.135 1.87676 138.344L1.70523 136.534C1.52417 134.601 1.33358 132.601 1.20016 130.572C0.0851958 121.857 -0.248341 113.523 0.180492 105.799C0.342495 102.97 0.599795 100.179 0.96192 97.4931L1.00957 97.1217L1.10486 96.7598C3.47774 88.0353 6.2985 79.9013 9.48139 72.5865C10.644 69.9101 11.8829 67.3004 13.1408 64.824L13.4552 64.2811C18.7061 56.3376 23.852 49.4419 29.2172 43.2033C31.6568 40.4031 33.7438 38.3363 35.7831 36.6885C41.1388 32.1263 47.1996 26.9544 53.5273 22.2112C56.1098 20.2968 58.2539 18.8776 60.2838 17.7252C62.5995 16.3632 65.039 15.0107 67.4596 13.7439C69.5847 12.6486 72.3673 11.2771 75.2738 10.2198C77.5514 9.40072 79.8195 8.60066 82.1161 7.81012C84.6414 6.94339 86.9286 6.18142 89.1108 5.48613L89.7684 5.27659L90.4545 5.22897C96.5916 4.81941 102.976 4.09555 110.543 2.96213C112.706 2.6383 114.879 2.29541 117.061 1.93348C122.95 0.638144 129.002 0 135.196 0C138.226 0 141.305 0.180966 144.325 0.533374L145.078 0.619095L145.783 0.895306C150.586 2.79069 155.494 4.45748 161.412 6.43859C164.471 7.46724 167.034 8.33397 169.627 9.25785L170.217 9.50549L171.532 10.1436C196.186 22.1541 224.107 35.7646 232.046 66.3574C232.703 68.0242 233.57 69.672 234.666 71.6245C237.963 77.4916 241.718 84.1397 244.577 90.9593C245.606 93.3976 246.435 95.6549 247.121 97.8551C249.18 103.836 248.56 109.98 248.017 115.399C247.865 116.923 247.722 118.371 247.636 119.742L247.617 120.019C247.483 121.228 247.445 122.514 247.483 124.171C247.903 132.972 247.483 141.62 246.235 149.869C245.74 152.897 244.891 155.888 243.71 158.831C242.766 161.308 241.832 163.812 240.898 166.336C240.117 168.451 239.326 170.575 238.526 172.699C237.611 175.118 236.582 177.699 235.257 180.166C234.113 182.395 232.979 184.528 231.845 186.595C230.597 188.881 229.349 191.081 228.119 193.129L227.843 193.596L227.481 194.005C224.365 197.51 221.363 201.158 218.199 205.016C216.226 207.416 214.177 209.902 212.119 212.33C210.385 214.34 208.383 216.626 206.192 218.636C197.215 226.713 188.095 233.323 179.042 238.313C175.849 240.075 173.286 241.228 170.742 242.057L170.494 242.133C168.14 242.78 165.748 243.438 163.347 244.085C160.373 244.857 158.096 245.428 155.932 245.943L155.208 246.066C150.539 246.543 145.688 247.209 141.009 247.847C137.817 248.286 134.51 248.733 131.251 249.124C128.211 249.495 125.533 249.771 123.046 249.981L122.674 250.01L122.665 250ZM92.6654 234.685C94.9525 235.227 97.3444 235.713 99.784 236.151C106.722 237.38 114.136 238.171 122.436 238.561C124.675 238.361 127.115 238.104 129.859 237.78C133.033 237.399 136.292 236.951 139.446 236.523C144.106 235.885 148.909 235.227 153.664 234.742C155.637 234.275 157.734 233.751 160.411 233.056C162.718 232.437 165.024 231.799 167.32 231.17C169.121 230.57 171.037 229.694 173.524 228.322C181.805 223.75 190.211 217.655 198.501 210.197C200.198 208.644 201.856 206.749 203.419 204.93C205.391 202.596 207.411 200.149 209.355 197.777C212.338 194.148 215.426 190.395 218.561 186.843C219.628 185.033 220.715 183.109 221.811 181.119C222.897 179.137 223.974 177.09 225.127 174.861C226.128 172.994 226.928 171.032 227.824 168.651C228.615 166.556 229.396 164.46 230.168 162.365C231.121 159.793 232.074 157.231 233.037 154.707L233.075 154.612C233.951 152.44 234.58 150.25 234.923 148.097C236.057 140.63 236.439 132.715 236.048 124.648V124.505C235.991 122.362 236.048 120.638 236.229 118.942C236.324 117.38 236.486 115.799 236.639 114.266C237.115 109.58 237.554 105.151 236.296 101.532L236.239 101.351C235.657 99.4743 234.933 97.5312 234.047 95.4073C231.436 89.1973 228.014 83.1206 224.708 77.2535C223.574 75.2343 222.268 72.8437 221.248 70.1482L221.058 69.5386C214.549 43.851 190.134 31.9548 166.539 20.4587L165.51 19.9539C163.108 19.0967 160.678 18.2776 157.8 17.3156C152.006 15.3726 147.156 13.7249 142.324 11.8485C139.961 11.6009 137.559 11.4771 135.206 11.4675C129.859 11.4675 124.532 12.0295 119.434 13.1724L119.11 13.2391C116.823 13.6106 114.555 13.9725 112.287 14.3154C104.682 15.4583 98.1926 16.2012 91.9602 16.6394C90.0638 17.2489 88.0626 17.9157 85.8803 18.6681C83.6313 19.4396 81.4109 20.2301 79.2096 21.0206C76.932 21.8493 74.5591 23.0208 72.7485 23.9542C70.5376 25.1067 68.2696 26.3544 66.0587 27.6688C64.3529 28.6403 62.5804 29.8213 60.3981 31.431C54.3659 35.9551 48.4194 41.0222 43.1781 45.4892L43.0447 45.594C41.52 46.8131 39.8904 48.4513 37.8987 50.7277C32.9433 56.49 28.1308 62.9286 23.2136 70.3577C22.1081 72.5389 21.0313 74.8343 20.0021 77.1964C17.086 83.9016 14.4844 91.3879 12.2736 99.4457C11.9782 101.722 11.759 104.094 11.6256 106.494C11.2253 113.59 11.5493 121.285 12.5785 129.391L12.6166 129.772C12.731 131.658 12.9121 133.534 13.1026 135.525L13.2742 137.325C13.5696 140.23 13.7792 142.801 13.9127 145.144C14.0175 146.925 14.2367 148.688 14.4654 150.545C14.5416 151.116 14.6083 151.697 14.675 152.269C15.0086 154.85 15.2373 157.241 15.3802 159.517C15.79 161.603 16.4857 163.651 17.1718 165.565C19.5637 172.08 22.5751 178.614 26.1201 184.957C27.2732 186.833 28.6264 188.691 30.2559 190.634C35.9547 197.263 42.8064 203.52 49.4295 209.578C52.5457 212.426 55.7572 215.369 58.7971 218.293C60.3981 219.664 62.466 220.874 64.2862 221.874C73.5966 227.008 83.8505 231.265 92.713 234.761L92.6654 234.685Z" fill="#FFA426"/>
<path d="M126.287 231.645H126.039C117.462 231.645 109.391 231.035 102.043 229.864L101.09 229.711C98.7175 229.34 96.2589 228.949 93.7717 228.226C83.737 225.311 73.7309 220.511 64.0393 213.958C62.0762 212.634 59.5413 210.815 57.3304 208.5C55.1767 206.262 52.9659 204.062 50.6216 201.728C47.4482 198.585 44.1796 195.328 41.0634 191.947C38.357 189.032 36.2128 186.518 34.3259 184.07C32.6201 181.86 31.3432 179.908 30.2949 177.946C28.9417 175.402 27.7791 172.764 26.7213 170.297C25.1775 166.707 23.9291 163.411 22.8999 160.23L22.7379 159.725C22.109 157.811 21.4038 155.639 21.156 153.21C21.0512 152.21 20.994 151.201 20.9273 150.182C20.8701 149.305 20.8225 148.429 20.7367 147.553L20.5747 146.181C20.3746 144.457 20.1649 142.686 20.0601 140.809C19.9458 138.771 19.7647 136.666 19.5836 134.695L19.5074 133.856C19.3454 132.075 19.1739 130.228 19.05 128.38C18.3543 123.579 18.0017 118.693 17.9922 113.855C17.9922 111.712 18.0494 109.55 18.1828 107.435L18.24 106.473C18.3543 104.445 18.4782 102.349 18.888 100.178C19.7552 95.644 21.299 91.358 22.7951 87.2148L23.0429 86.51C23.9196 84.0527 24.8726 81.6525 25.8732 79.3857L26.0924 78.8713C26.9881 76.8331 27.903 74.7282 29.1323 72.6518C31.5242 68.6039 34.4022 64.8226 37.1753 61.1557L37.3754 60.889C39.1289 58.5745 40.787 56.5173 42.4452 54.5933C44.2939 52.4503 46.1522 50.593 47.9628 49.0881C49.1731 48.0785 50.3738 47.0499 51.5841 46.0212C53.2708 44.583 55.0147 43.0877 56.7968 41.6399C59.2459 39.6302 61.4853 37.9063 63.639 36.3538C64.7826 35.5252 65.9261 34.7537 67.0316 34.0584C67.7939 33.5726 68.6135 33.0774 69.5188 32.563C71.4057 31.4868 73.5975 30.2486 75.8655 29.0866C76.9138 28.5532 77.8953 28.077 78.8578 27.6293C80.2587 26.9817 81.5166 26.4578 82.7078 26.0387C84.6709 25.3339 86.7102 24.6291 88.7877 23.9624C90.9795 23.248 93.0188 22.629 95.0201 22.0575L95.5061 21.9241L96.0111 21.886C99.0987 21.667 102.377 21.3908 106.618 20.9907C109.029 20.7145 111.43 20.4193 113.832 20.124C114.527 20.0383 115.232 19.9621 115.928 19.8859C117.205 19.743 118.415 19.6192 119.606 19.4287C123.885 18.7525 128.993 18.0858 134.234 18.181C136.684 18.2286 139.161 18.4096 141.61 18.7239L142.201 18.8001L142.754 19.0192C144.765 19.8002 146.995 20.6098 149.758 21.5813C151.454 22.1432 153.227 22.7242 155.009 23.2957L155.39 23.4195C155.991 23.6195 156.6 23.8005 157.21 23.991C158.868 24.5053 160.584 25.0291 162.309 25.734C166.511 27.4388 170.58 29.5438 174.516 31.582L175.965 32.3345C182.54 35.7252 192.174 41.1161 199.884 48.6786C205.478 54.1742 209.795 61.2128 213.483 70.8326C213.911 71.947 214.655 73.1471 215.446 74.4043C215.751 74.8901 216.046 75.3758 216.342 75.8711C216.799 76.6426 217.256 77.4236 217.714 78.2046C219.41 80.9191 220.859 83.386 222.136 85.748C223.832 88.9007 225.099 91.5009 226.138 93.9391C226.938 95.825 227.71 97.8728 228.559 100.397C229.054 101.845 229.397 103.168 229.626 104.445C230.302 108.302 230.217 112.16 230.074 115.465C229.997 117.303 229.921 119.122 229.835 120.903C229.759 122.398 229.693 123.865 229.721 125.237C229.874 131.428 229.702 136.466 229.178 141.095C228.93 143.295 228.644 145.295 228.301 147.2C227.863 149.591 227.129 152.048 226.052 154.715C225.604 155.811 225.176 156.915 224.737 158.03L223.965 160.02C223.127 162.182 222.279 164.364 221.392 166.526C220.354 169.069 219.458 170.993 218.476 172.755L218.209 173.231C217.333 174.926 216.446 176.593 215.579 178.174C214.502 180.127 213.425 182.003 212.368 183.746L212.158 184.098L211.891 184.413C211.005 185.451 210.119 186.499 209.232 187.565L206.469 190.87C203.924 193.909 201.294 197.061 198.607 200.119C197.13 201.804 195.538 203.586 193.766 205.176C188.944 209.519 183.855 213.443 178.661 216.853C176.327 218.387 173.973 219.815 171.676 221.101C169.723 222.197 167.436 223.425 164.91 224.254C163.3 224.778 161.661 225.254 160.079 225.721L159.05 226.016C158.573 226.159 158.097 226.302 157.62 226.444C156.095 226.911 154.523 227.387 152.817 227.73C152.617 227.768 152.417 227.797 152.217 227.826C149.082 228.273 145.87 228.797 142.763 229.311C139.638 229.826 136.398 230.359 133.186 230.816C130.747 231.159 128.574 231.435 126.525 231.635L126.277 231.664L126.287 231.645ZM97.2309 31.563C95.4965 32.0582 93.724 32.6107 91.8276 33.2298C89.855 33.8774 87.9014 34.5441 86.0336 35.2109C85.1093 35.5442 84.1087 35.9633 82.9556 36.4872C82.1265 36.8681 81.2402 37.2967 80.3254 37.7634C78.2479 38.8207 76.161 40.0017 74.3789 41.0208C73.607 41.459 72.9209 41.878 72.2729 42.2876C71.3199 42.8876 70.3479 43.5448 69.3568 44.2592C67.3746 45.6879 65.2877 47.2975 62.9815 49.1834C61.2757 50.5739 59.5699 52.0312 57.9308 53.4313C56.692 54.4885 55.4531 55.5457 54.2142 56.5744C52.8229 57.7364 51.3458 59.2127 49.8497 60.9557C48.3249 62.7177 46.8002 64.6226 45.1706 66.7752L44.961 67.0514C42.226 70.6517 39.6435 74.0614 37.5374 77.6236C36.6131 79.1856 35.8507 80.9286 35.0407 82.7859L34.812 83.3098C33.9066 85.3766 33.0394 87.5577 32.2294 89.8055L31.9721 90.5198C30.5427 94.482 29.199 98.2347 28.4748 102.016C28.1793 103.549 28.084 105.235 27.9792 107.026L27.922 108.026C27.8077 109.94 27.7505 111.893 27.7505 113.836C27.76 118.284 28.0936 122.77 28.7416 127.17L28.7797 127.58C28.8845 129.351 29.0561 131.19 29.2181 132.961L29.2943 133.809C29.4849 135.876 29.6755 138.085 29.7994 140.286C29.8851 141.867 30.0662 143.419 30.2568 145.067L30.4283 146.553C30.5332 147.572 30.5903 148.581 30.657 149.601C30.7142 150.486 30.7619 151.363 30.8572 152.239C31.0001 153.629 31.4861 155.125 32.0007 156.706L32.1723 157.23C33.1157 160.125 34.2592 163.144 35.6791 166.468C36.6512 168.745 37.7185 171.164 38.9002 173.383C39.6816 174.85 40.6822 176.355 42.0449 178.126C43.7507 180.346 45.7138 182.632 48.2106 185.337C51.1934 188.565 54.3953 191.747 57.4829 194.813C59.77 197.08 62.1238 199.423 64.3633 201.757C65.9452 203.405 67.9369 204.833 69.4902 205.881C78.3432 211.862 87.4249 216.225 96.4781 218.863C98.3745 219.415 100.414 219.739 102.587 220.082L103.568 220.234C110.344 221.32 117.815 221.873 125.782 221.892C127.621 221.701 129.593 221.454 131.795 221.149C134.892 220.711 138.075 220.187 141.153 219.673C144.307 219.149 147.576 218.615 150.787 218.158L150.987 218.13C152.188 217.882 153.427 217.501 154.752 217.101C155.266 216.939 155.781 216.787 156.295 216.634L157.334 216.329C158.907 215.872 160.393 215.434 161.861 214.958C163.548 214.405 165.272 213.472 166.892 212.567C168.989 211.396 171.143 210.081 173.287 208.672C178.08 205.529 182.769 201.909 187.219 197.899C188.591 196.661 189.906 195.185 191.25 193.661C193.861 190.689 196.453 187.584 198.96 184.584L201.733 181.279C202.562 180.298 203.381 179.317 204.201 178.346C205.125 176.803 206.069 175.155 207.012 173.44C207.851 171.926 208.699 170.326 209.547 168.688L209.928 167.992C210.71 166.583 211.453 164.973 212.349 162.802C213.216 160.687 214.035 158.563 214.855 156.458L215.636 154.458C216.084 153.306 216.532 152.163 216.999 151.02C217.828 148.991 218.381 147.162 218.695 145.429C219 143.743 219.258 141.962 219.477 139.981C219.953 135.799 220.106 131.19 219.963 125.456C219.925 123.732 219.991 122.065 220.087 120.37C220.182 118.627 220.249 116.846 220.325 115.046C220.439 112.245 220.525 109.007 220.01 106.112C219.877 105.34 219.648 104.492 219.315 103.521C218.543 101.235 217.857 99.4062 217.152 97.749C216.237 95.5964 215.093 93.2534 213.549 90.3865C212.358 88.1959 211.005 85.8719 209.394 83.3098L209.309 83.1574C208.861 82.3859 208.413 81.6239 207.965 80.8715C207.708 80.4334 207.431 79.9952 207.165 79.5666C206.212 78.0427 205.135 76.3092 204.372 74.3281C201.161 65.9465 197.664 60.1842 193.042 55.641C187.896 50.593 181.044 45.9355 171.486 41.0113L170.028 40.2589C166.12 38.2397 162.423 36.3252 158.64 34.7823C157.306 34.2394 155.857 33.7917 154.332 33.3155C153.684 33.1155 153.036 32.9155 152.388 32.7059L152.007 32.5821C150.206 32.0011 148.405 31.4106 146.623 30.8201C143.945 29.8867 141.772 29.0961 139.8 28.3437C137.894 28.1151 135.959 27.9817 134.053 27.9532C129.536 27.8579 124.991 28.477 121.131 29.0771C119.711 29.3057 118.329 29.4485 116.986 29.6009C116.328 29.6676 115.671 29.7438 115.013 29.82C112.574 30.1152 110.134 30.4105 107.685 30.6962H107.571C104.769 30.9629 101.09 31.2963 97.2119 31.582L97.2309 31.563Z" fill="#FF981C"/>
<path d="M123.097 213.455C117.208 213.455 111.566 213.074 106.268 212.322C103.809 211.969 101.017 211.569 98.2724 210.846C87.6374 208.007 77.6885 202.931 69.493 196.149C67.2631 194.301 65.3667 192.416 63.699 190.387C62.0408 188.358 60.2969 186.396 58.4482 184.32C56.2754 181.872 54.0264 179.338 51.9204 176.691C50.0526 174.348 48.4993 172.214 47.1556 170.166C45.9644 168.338 45.0781 166.766 44.3825 165.214C43.4581 163.166 42.6862 161.061 41.9715 159.08C40.8756 156.032 40.0656 153.479 39.4175 151.06L39.3222 150.717C38.9125 149.193 38.4551 147.46 38.3216 145.555C38.2645 144.717 38.2359 143.879 38.2073 143.04C38.1882 142.402 38.1692 141.764 38.1215 141.116L38.0167 140.088C37.8833 138.735 37.7403 137.335 37.6641 135.878C37.5783 134.211 37.4449 132.506 37.321 131.049L37.2353 130.097C37.1209 128.792 37.0066 127.477 36.9208 126.163C36.2823 122.401 35.9583 118.4 35.9774 114.276C35.9869 112.591 36.0536 110.838 36.1775 109.057L36.2347 108.219C36.3395 106.6 36.4443 104.933 36.7493 103.218C37.4354 99.3133 38.7219 95.6178 39.9512 92.0461C40.6469 90.0174 41.4188 88.0363 42.2478 86.1695C43.0674 84.3217 43.8965 82.5216 44.9638 80.75C46.9841 77.3974 49.3283 74.1781 51.5487 71.1683C52.9305 69.2825 54.2837 67.5871 55.6655 65.9679C57.2189 64.1583 58.6864 62.6819 60.1349 61.4628C61.0498 60.6913 61.9741 59.9008 62.889 59.1102C64.4518 57.7673 66.0814 56.3767 67.7396 55.0147C69.7122 53.3955 71.7325 51.8621 73.7337 50.4905C74.7248 49.8143 75.7159 49.1666 76.6974 48.5856C77.4026 48.1666 78.1078 47.7475 78.813 47.357C80.4425 46.4426 82.3389 45.3949 84.2734 44.4139C85.1311 43.9853 85.9888 43.5662 86.8464 43.1852C88.0186 42.6614 89.0954 42.2137 90.1437 41.8423C91.9448 41.2041 93.7363 40.6136 95.4612 40.0898C97.3099 39.5278 99.1492 39.0325 100.931 38.5944L101.246 38.5182L101.57 38.4896C105.134 38.2039 108.078 38.0039 110.842 37.8515C113.091 37.6134 115.14 37.4134 117.112 37.2419C117.865 37.1752 118.618 37.1371 119.371 37.0895C120.343 37.0324 121.267 36.9752 122.173 36.88C125.88 36.48 129.53 36.1371 133.322 36.3276C135.181 36.4133 137.067 36.6038 138.935 36.88L139.364 36.9467L139.764 37.0991C141.632 37.8039 143.5 38.4611 145.091 39.023L149.427 40.3564C149.866 40.4898 150.304 40.6231 150.733 40.7469C152.039 41.1279 153.382 41.528 154.745 42.0518C158.214 43.3852 161.568 45.0425 164.808 46.6426L165.304 46.8903C173.261 50.8144 179.169 54.6623 183.877 58.996C189.052 63.7868 192.273 69.6634 194.979 75.2924C195.417 76.2068 196.094 77.1688 196.799 78.1974C197.237 78.8356 197.685 79.4737 198.105 80.1309C198.553 80.8452 199 81.5596 199.439 82.2834C201.164 84.7312 202.612 87.0171 203.889 89.2649C205.585 92.2461 206.777 94.6082 207.768 96.9131C208.521 98.6561 209.254 100.571 210.074 102.933C210.407 103.895 210.836 105.18 211.122 106.59C211.837 110.095 212.008 113.667 212.075 116.696C212.123 118.62 212.132 120.334 212.104 121.944L212.075 123.268C212.046 124.287 212.027 125.287 212.037 126.296C212.104 131.563 211.884 135.63 211.341 139.469C211.094 141.221 210.798 142.917 210.446 144.507C210.017 146.469 209.369 148.46 208.463 150.603L208.273 151.041C207.949 151.803 207.625 152.565 207.301 153.346L206.853 154.432C206.052 156.365 205.223 158.365 204.328 160.356C203.432 162.337 202.612 163.937 201.745 165.395L201.545 165.728C200.83 167.109 200.106 168.471 199.382 169.766C198.495 171.357 197.59 172.909 196.685 174.376L196.37 174.814L195.322 176.1C194.712 176.853 194.112 177.595 193.483 178.338C190.805 181.539 188.003 184.748 185.154 187.872C183.982 189.149 182.772 190.473 181.399 191.692C177.673 194.997 173.728 198.007 169.687 200.616C167.877 201.788 166.076 202.893 164.351 203.883C162.864 204.731 161.13 205.702 159.252 206.388C158.023 206.845 156.775 207.264 155.526 207.683L154.831 207.922C154.478 208.045 154.126 208.16 153.763 208.283C152.61 208.684 151.419 209.103 150.133 209.426C149.98 209.465 149.828 209.493 149.675 209.522C147.998 209.865 146.311 210.227 144.624 210.588C141.546 211.255 138.364 211.931 135.19 212.503C133.351 212.827 131.683 213.084 130.073 213.284L129.749 213.312C127.509 213.417 125.289 213.465 123.116 213.465L123.097 213.455ZM102.542 46.5379C100.998 46.9188 99.4065 47.357 97.815 47.8332C96.2045 48.319 94.5368 48.8714 92.8691 49.4619C92.0401 49.7572 91.1633 50.1191 90.1913 50.5572C89.429 50.9001 88.6666 51.2716 87.9137 51.643C86.1317 52.5478 84.3211 53.5479 82.7582 54.4147C82.1293 54.7671 81.5003 55.129 80.8714 55.51C80.0328 56.0148 79.1751 56.5672 78.327 57.1482C76.5259 58.3959 74.6866 59.7865 72.876 61.2723C71.275 62.5772 69.6931 63.9297 68.1684 65.244C67.225 66.0536 66.2911 66.8537 65.3476 67.6442C64.2327 68.5872 63.0796 69.7587 61.8121 71.2255C60.5638 72.6827 59.344 74.2257 58.0765 75.9496C55.961 78.8165 53.7501 81.8548 51.9013 84.9122C51.0723 86.2837 50.3957 87.7696 49.6524 89.4364C48.9186 91.0936 48.2324 92.8461 47.613 94.6558C46.4218 98.1037 45.2973 101.342 44.7255 104.609C44.4968 105.876 44.4111 107.257 44.3158 108.724L44.2586 109.59C44.1538 111.2 44.0871 112.791 44.0775 114.305C44.0585 118.029 44.3444 121.62 44.9352 124.982L44.9828 125.42C45.0686 126.744 45.183 128.068 45.2973 129.382L45.3831 130.344C45.507 131.859 45.6594 133.649 45.7452 135.44C45.8119 136.697 45.9358 137.935 46.0692 139.24L46.1931 140.507C46.2408 141.25 46.2693 142.002 46.2884 142.745C46.317 143.488 46.336 144.221 46.3932 144.955C46.479 146.088 46.803 147.317 47.1461 148.603L47.2414 148.955C47.8227 151.155 48.566 153.489 49.5856 156.318C50.2718 158.232 50.9579 160.089 51.7584 161.861C52.2825 163.023 52.9782 164.252 53.9311 165.718C55.1319 167.547 56.5423 169.481 58.2481 171.633C60.2207 174.109 62.3934 176.557 64.4995 178.929C66.3196 180.977 68.197 183.091 69.96 185.234C71.2941 186.863 72.8284 188.377 74.6581 189.892C81.9673 195.93 90.8584 200.464 100.369 203.007C102.647 203.616 105.067 203.959 107.411 204.293C114.12 205.245 121.448 205.55 129.196 205.207C130.616 205.026 132.112 204.798 133.751 204.502C136.782 203.969 139.888 203.293 142.89 202.645C144.615 202.274 146.33 201.902 148.036 201.559L148.208 201.531C149.132 201.292 150.075 200.959 151.086 200.616C151.467 200.483 151.848 200.35 152.229 200.226L152.934 199.988C154.116 199.588 155.288 199.197 156.432 198.768C157.728 198.292 159.062 197.549 160.31 196.825C161.902 195.911 163.569 194.892 165.266 193.787C168.973 191.387 172.584 188.634 176.006 185.596C177.063 184.663 178.083 183.548 179.15 182.377C181.923 179.348 184.639 176.233 187.241 173.119C187.832 172.405 188.423 171.69 188.994 170.976L189.89 169.881C190.691 168.576 191.491 167.204 192.273 165.795C192.968 164.537 193.673 163.223 194.369 161.889L194.769 161.204C195.475 160.023 196.161 158.68 196.933 156.984C197.781 155.118 198.581 153.184 199.353 151.308L199.81 150.212C200.144 149.422 200.478 148.631 200.802 147.85L200.983 147.412C201.688 145.745 202.193 144.221 202.507 142.764C202.812 141.345 203.07 139.888 203.298 138.307C203.784 134.887 203.975 131.201 203.918 126.363C203.908 125.268 203.927 124.163 203.956 123.048L203.984 121.772C204.013 120.286 204.004 118.686 203.956 116.867C203.889 114.057 203.746 111.057 203.165 108.181C202.974 107.257 202.66 106.314 202.412 105.59C201.65 103.399 200.973 101.656 200.306 100.085C199.439 98.0656 198.362 95.9607 196.828 93.2462C195.665 91.1984 194.312 89.0935 192.711 86.8076L192.549 86.5504C192.12 85.8361 191.691 85.1408 191.262 84.455C190.9 83.8931 190.519 83.3407 190.147 82.7978C189.29 81.5596 188.394 80.2738 187.679 78.7784C185.316 73.8638 182.562 68.7967 178.388 64.9297C174.271 61.1485 168.973 57.7197 161.73 54.1384L161.235 53.8908C158.014 52.3002 154.964 50.7953 151.848 49.6048C150.781 49.1952 149.647 48.8618 148.446 48.4999C147.979 48.3666 147.521 48.2237 147.055 48.0808L142.499 46.6807C141.051 46.1759 139.193 45.5187 137.334 44.8234C135.876 44.6139 134.399 44.4806 132.951 44.4139C129.739 44.252 126.432 44.5663 123.059 44.9282C121.973 45.0425 120.905 45.1092 119.886 45.1663C119.199 45.2044 118.513 45.2521 117.827 45.3092C115.883 45.4711 113.863 45.6711 111.633 45.9092L111.423 45.9283C108.784 46.0712 105.963 46.2617 102.57 46.5283L102.542 46.5379Z" fill="#FF8C13"/>
<path d="M122.361 195.493C118.273 195.493 114.289 195.255 110.468 194.778C108.333 194.512 105.532 194.131 102.749 193.455C91.7231 190.788 82.1554 185.578 75.0844 178.406C73.2452 176.539 71.568 174.482 70.1195 172.301C69.2713 171.024 68.3851 169.767 67.5084 168.5C65.9074 166.214 64.2492 163.843 62.7626 161.357C61.6667 159.519 60.7519 157.823 59.98 156.176C59.3415 154.833 58.8555 153.604 58.4743 152.432C57.9978 150.966 57.6357 149.48 57.2831 148.042L57.2259 147.823C56.6922 145.641 56.2634 143.794 55.9394 141.851L55.9203 141.717C55.7298 140.574 55.5201 139.27 55.4915 137.888C55.482 137.184 55.4915 136.479 55.4915 135.774C55.4915 135.403 55.501 135.031 55.501 134.66L55.4439 133.917C55.3676 132.926 55.2914 131.936 55.2533 130.936C55.2056 129.764 55.1294 128.583 55.0436 127.402L54.9483 126.068C54.8911 125.364 54.8435 124.659 54.7959 123.954C54.186 121.087 53.9191 118.058 53.9763 114.696C53.9954 113.439 54.0621 112.125 54.1764 110.677L54.2336 109.963C54.3289 108.762 54.4242 107.515 54.6148 106.267C55.0627 103.343 55.9013 100.6 56.8733 97.5806C57.407 95.9138 57.9883 94.3994 58.6458 92.9517C59.3701 91.3516 60.0562 90.0467 60.809 88.8371C62.2671 86.5036 63.9157 84.0177 65.7168 81.4556C66.746 79.9983 67.8133 78.6173 68.8806 77.3505C70.1385 75.8837 71.2249 74.7694 72.3113 73.8455C72.9974 73.2549 73.6835 72.6644 74.3792 72.0644C75.7705 70.8643 77.2 69.6261 78.6866 68.407C80.421 66.9878 82.1077 65.7496 83.8421 64.6257C84.6426 64.1114 85.4907 63.5971 86.3675 63.1113C86.9488 62.7875 87.5205 62.4637 88.1018 62.1493C89.7123 61.2731 91.1704 60.4921 92.6951 59.7396C93.4098 59.3872 94.1246 59.0539 94.8488 58.73C95.7827 58.3205 96.7071 57.949 97.5838 57.6347C99.099 57.1013 100.633 56.6251 102.139 56.2156C103.692 55.7965 105.274 55.4345 106.847 55.1488L107.152 55.1107C109.82 54.8726 112.488 54.7488 115.071 54.7393C116.862 54.5773 118.644 54.463 120.388 54.3964C121.065 54.3773 121.703 54.3964 122.323 54.4154C123.095 54.444 123.828 54.463 124.457 54.3868C127.259 54.044 130.07 54.2535 132.443 54.5011C133.72 54.6345 135.016 54.825 136.284 55.0631L136.76 55.1964L140.438 56.5013C141.43 56.768 142.43 57.0347 143.431 57.3109L144.155 57.5109C145.127 57.7776 146.128 58.0443 147.147 58.3967C149.777 59.3015 152.379 60.4444 154.619 61.454C160.117 63.94 164.32 66.4354 167.836 69.3023C171.534 72.3311 174.107 76.1314 176.432 79.7697C176.899 80.5031 177.48 81.246 178.1 82.027C178.69 82.7795 179.291 83.551 179.882 84.4082C180.32 85.0559 180.749 85.713 181.168 86.3893C182.893 88.5513 184.36 90.6468 185.637 92.7803C186.848 94.7899 188.229 97.1996 189.392 99.8665C190.097 101.486 190.793 103.267 191.593 105.467C191.984 106.543 192.356 107.61 192.623 108.753C193.423 112.134 193.804 115.458 194.052 117.982C194.233 119.782 194.328 121.421 194.367 123.002C194.386 123.983 194.367 124.954 194.367 125.935C194.367 126.392 194.357 126.85 194.357 127.307C194.338 131.412 194.071 134.745 193.499 137.803C193.252 139.127 192.947 140.47 192.594 141.774C192.175 143.308 191.613 144.832 190.888 146.451C190.717 146.832 190.536 147.213 190.355 147.603C190.193 147.937 190.04 148.28 189.878 148.623L189.602 149.223C188.878 150.832 188.125 152.49 187.257 154.137C186.505 155.576 185.771 156.833 184.999 157.985L184.866 158.176C184.322 159.242 183.751 160.3 183.179 161.309C182.474 162.557 181.74 163.786 180.987 164.957L180.835 165.186L180.434 165.719C179.843 166.5 179.224 167.31 178.557 168.119C176.251 170.9 173.792 173.463 171.705 175.606L171.581 175.729C170.781 176.549 169.961 177.387 169.046 178.177C166.454 180.415 163.662 182.492 160.737 184.349C159.507 185.13 158.287 185.892 157.058 186.625C155.953 187.292 154.857 187.93 153.647 188.473C152.856 188.835 152.046 189.178 151.245 189.521L149.987 190.064C149.206 190.407 148.396 190.759 147.519 191.064C147.443 191.092 147.347 191.121 147.243 191.15L145.842 191.597C143.059 192.493 140.172 193.416 137.237 194.14C135.979 194.445 134.806 194.693 133.653 194.893L133.406 194.931C129.67 195.293 126.001 195.474 122.418 195.474L122.361 195.493ZM107.857 61.5207C106.504 61.7779 105.141 62.0922 103.797 62.4541C102.444 62.8161 101.062 63.2447 99.6994 63.7209C98.9751 63.9781 98.2032 64.2828 97.4218 64.6352C96.7833 64.921 96.1448 65.2162 95.5064 65.5306C94.096 66.2258 92.6951 66.9783 91.1418 67.826C90.5891 68.1307 90.0364 68.4355 89.4836 68.7498C88.7308 69.1784 87.997 69.6166 87.3014 70.0547C85.7766 71.0453 84.2805 72.1406 82.7367 73.4073C81.3168 74.5693 79.9159 75.7885 78.5627 76.96C77.8575 77.5696 77.1618 78.1696 76.4662 78.7697C75.6371 79.4745 74.7794 80.3603 73.7502 81.5603C72.7973 82.6842 71.8824 83.8653 70.9485 85.1892C69.2142 87.6465 67.6322 90.0277 66.2314 92.2659C65.631 93.2279 65.0783 94.2946 64.4684 95.6281C63.9157 96.8472 63.4202 98.133 62.9627 99.5617C62.0765 102.314 61.3141 104.791 60.9425 107.248C60.79 108.258 60.7042 109.324 60.6184 110.467L60.5613 111.201C60.4564 112.525 60.3993 113.706 60.3802 114.83C60.3326 117.782 60.5708 120.401 61.1045 122.84L61.1712 123.316C61.2188 124.078 61.276 124.849 61.3332 125.611L61.438 126.964C61.5238 128.212 61.6095 129.45 61.6667 130.688C61.7048 131.621 61.7811 132.545 61.8478 133.46L61.924 134.574C61.924 135.012 61.924 135.45 61.9145 135.888C61.9145 136.517 61.8954 137.146 61.9145 137.774C61.9335 138.688 62.0955 139.66 62.2575 140.679L62.2766 140.803C62.5625 142.536 62.9627 144.251 63.4583 146.289L63.5154 146.518C63.8585 147.908 64.1825 149.223 64.5828 150.47C64.8782 151.375 65.2689 152.356 65.793 153.452C66.4792 154.909 67.2892 156.414 68.2707 158.071C69.643 160.366 71.2344 162.633 72.7687 164.833C73.6835 166.138 74.5889 167.443 75.4656 168.757C76.6949 170.605 78.1053 172.339 79.6586 173.92C85.891 180.244 94.4009 184.844 104.264 187.235C106.732 187.835 109.305 188.188 111.259 188.426C117.93 189.254 125.115 189.302 132.605 188.588C133.577 188.416 134.578 188.197 135.655 187.94C138.371 187.273 141.134 186.387 143.812 185.521L145.327 185.035C145.975 184.806 146.652 184.511 147.367 184.206L148.663 183.654C149.425 183.33 150.187 183.006 150.94 182.663C151.836 182.263 152.76 181.72 153.704 181.158C154.885 180.454 156.067 179.711 157.239 178.968C159.898 177.282 162.433 175.396 164.787 173.367C165.501 172.748 166.197 172.043 166.931 171.291L167.055 171.167C169.056 169.119 171.4 166.672 173.563 164.062C174.135 163.367 174.688 162.652 175.26 161.89L175.593 161.452C176.26 160.404 176.918 159.309 177.547 158.195C178.109 157.204 178.662 156.176 179.195 155.128L179.615 154.461C180.253 153.499 180.882 152.432 181.53 151.194C182.312 149.699 183.026 148.127 183.712 146.613L183.989 146.003C184.151 145.641 184.322 145.279 184.494 144.918C184.665 144.556 184.827 144.203 184.989 143.841C185.58 142.546 186.019 141.327 186.352 140.127C186.657 138.993 186.924 137.822 187.143 136.669C187.648 134.002 187.886 131.04 187.896 127.335C187.896 126.859 187.896 126.383 187.905 125.916C187.915 125.011 187.925 124.097 187.905 123.192C187.877 121.782 187.782 120.306 187.62 118.668C187.391 116.344 187.038 113.296 186.324 110.286C186.133 109.477 185.838 108.648 185.504 107.715C184.751 105.638 184.103 103.972 183.455 102.486C182.445 100.162 181.187 97.9711 180.082 96.1424C178.919 94.2089 177.585 92.304 175.984 90.3134L175.755 89.9991C175.345 89.3419 174.936 88.7037 174.516 88.0847C174.049 87.3989 173.535 86.7417 172.992 86.0464C172.305 85.1701 171.6 84.2653 170.971 83.2843C168.932 80.084 166.693 76.76 163.729 74.3312C160.66 71.8263 156.915 69.6071 151.941 67.3593C149.739 66.3687 147.395 65.3305 145.032 64.521C144.212 64.2447 143.355 64.0066 142.449 63.759L141.696 63.559C140.677 63.2732 139.657 63.0066 138.637 62.7303L138.39 62.6541L134.816 61.3874C133.806 61.1969 132.777 61.054 131.757 60.9493C129.622 60.7302 127.373 60.5587 125.21 60.8254C124.095 60.9588 123.028 60.9302 122.084 60.8921C121.589 60.8731 121.084 60.854 120.588 60.8731C118.93 60.9302 117.224 61.0445 115.519 61.2064L115.223 61.2255C112.822 61.2255 110.353 61.3398 107.866 61.5588L107.857 61.5207Z" fill="#FF7F0A"/>
<path d="M123.205 177.613C108.091 177.613 86.7065 173.813 76.6337 154.307L76.5384 154.107C75.452 151.421 74.3561 148.725 73.6223 145.82C72.8409 142.839 72.4692 139.677 72.5074 136.439C72.374 133.734 72.4978 130.953 72.879 128.181C72.8314 126 72.7837 123.876 72.6313 121.761C72.0595 119.742 71.8403 117.628 71.9356 115.132C71.9832 113.799 72.1167 112.532 72.2501 111.303C72.3168 110.656 72.3835 110.018 72.4407 109.389V109.265C72.7265 107.256 73.1649 105.189 73.7557 103.122C74.3656 100.884 75.3281 98.7977 76.6146 96.9405C76.9482 96.3976 77.2912 95.8451 77.6343 95.2927C78.349 94.1403 79.0733 92.9497 79.8547 91.7591C81.1221 89.7685 82.6564 87.9303 84.4003 86.3016L84.5147 86.2063C85.3056 85.5491 86.0775 84.8634 86.859 84.1776C87.7357 83.3966 88.6505 82.5965 89.6035 81.8155C91.5094 80.2249 93.6726 78.8248 95.9883 77.6819C96.522 77.4152 97.0747 77.1199 97.6274 76.8342C99.2856 75.9674 101.001 75.0817 102.792 74.3102C107.881 72.1481 113.418 71.2528 119.231 71.6528C121.928 71.4623 124.663 71.5481 127.35 71.9195C130.133 72.3005 132.935 72.9958 135.689 73.9863C138.481 74.4435 141.197 75.1293 143.779 76.0151C146.524 76.958 149.145 78.1581 151.584 79.5772C153.804 80.9012 155.853 82.4822 157.702 84.2919C159.589 86.1301 161.314 88.2446 162.848 90.5971C164.506 92.4068 166.012 94.3498 167.317 96.369C168.823 98.7692 169.967 100.817 170.92 102.836L170.967 102.941L171.32 103.789C172.263 106.074 173.235 108.437 174.017 110.922L174.064 111.113C174.255 111.951 174.455 112.78 174.655 113.608C175.113 115.504 175.589 117.466 175.942 119.447C176.494 122.39 176.714 125.4 176.58 128.371C176.561 131.029 176.218 133.658 175.551 136.191C174.846 138.839 173.769 141.449 172.359 143.944C171.225 146.306 169.805 148.582 168.118 150.687C166.812 153.221 165.297 155.64 163.601 157.878L163.487 158.021C161.619 160.126 159.865 161.888 158.131 163.422C156.177 165.174 153.995 166.774 151.67 168.155C150.279 169.003 148.906 169.937 147.572 170.851C146.667 171.47 145.761 172.089 144.856 172.68C142.884 173.984 140.215 175.623 137.242 176.527L136.908 176.604C133.954 177.051 129.056 177.613 123.224 177.613H123.205ZM80.9125 152.221C93.3772 176.194 125.978 173.413 135.994 171.918C138.319 171.175 140.539 169.813 142.216 168.698C143.112 168.117 143.979 167.527 144.856 166.927C146.238 165.984 147.667 165.003 149.192 164.079C151.27 162.85 153.195 161.431 154.939 159.869C156.53 158.469 158.131 156.859 159.837 154.935C161.39 152.878 162.781 150.649 163.963 148.316L164.077 148.097L164.239 147.906C165.774 146.011 167.06 143.963 168.07 141.839L168.156 141.677C169.385 139.515 170.319 137.258 170.929 134.981C171.501 132.829 171.796 130.581 171.806 128.314V128.21C171.93 125.59 171.739 122.933 171.244 120.314C170.91 118.447 170.481 116.647 170.014 114.732C169.814 113.913 169.624 113.104 169.433 112.275C168.718 110.018 167.832 107.875 166.898 105.608L166.565 104.808C165.707 102.979 164.659 101.112 163.286 98.9216C162.105 97.1024 160.723 95.3213 159.198 93.6735L158.941 93.3497C157.578 91.2353 156.034 89.3304 154.357 87.7017C152.775 86.1587 151.022 84.8062 149.145 83.6823C147 82.4346 144.656 81.3679 142.207 80.5202C139.825 79.6915 137.299 79.0724 134.698 78.6534L134.259 78.5391C131.753 77.6247 129.209 76.9866 126.683 76.6437C124.263 76.3103 121.814 76.2341 119.393 76.4151H119.212H119.031C113.904 76.0436 109.063 76.8056 104.622 78.6915C102.993 79.3868 101.439 80.1963 99.7906 81.0535C99.2284 81.3488 98.6566 81.6441 98.0848 81.9298C96.0741 82.9203 94.2349 84.1109 92.5958 85.4825C91.6905 86.2158 90.8233 86.9873 89.9751 87.7398C89.1747 88.4541 88.3742 89.1589 87.5546 89.8352C86.1252 91.1781 84.8673 92.6925 83.8095 94.3498C83.0376 95.5213 82.3324 96.6738 81.6463 97.7881C81.2841 98.3787 80.9315 98.9501 80.5789 99.5216L80.5122 99.6169C79.5116 101.055 78.7874 102.617 78.3014 104.408C77.7677 106.265 77.3865 108.084 77.1388 109.846C77.0816 110.484 77.0149 111.142 76.9482 111.808C76.8243 112.961 76.7004 114.142 76.6528 115.323C76.5765 117.39 76.7576 119.085 77.2245 120.657L77.3008 120.904L77.3198 121.161C77.4914 123.523 77.5581 125.971 77.5962 128.267V128.457L77.5771 128.648C77.215 131.21 77.1006 133.772 77.2245 136.258V136.334V136.41C77.1864 139.248 77.5104 142.011 78.187 144.62C78.8446 147.22 79.8261 149.64 80.8553 152.202L80.9125 152.221Z" fill="#FF7300"/>
<path d="M351.417 78.5199C353.486 78.5199 355.162 80.1887 355.162 82.2474V103.433C355.162 105.492 353.486 107.16 351.417 107.16H275.854C273.786 107.16 272.109 105.492 272.109 103.433V82.2474C272.109 80.1887 273.786 78.5199 275.854 78.5199H351.417ZM290.965 49.3107C290.965 47.252 292.641 45.5832 294.709 45.5832H325.469C327.537 45.5832 329.214 47.2521 329.214 49.3107V173.75C329.214 177.27 329.752 180.015 330.83 181.984C331.907 183.893 333.404 185.236 335.319 186.012C337.294 186.787 339.569 187.175 342.143 187.175C343.939 187.175 345.734 187.026 347.53 186.728C347.713 186.691 347.892 186.656 348.067 186.621C350.063 186.224 351.996 187.506 352.416 189.488L356.973 210.979C357.372 212.859 356.269 214.731 354.4 215.21C353.011 215.567 351.409 215.947 349.595 216.353C346.123 217.188 341.904 217.695 336.935 217.874C327.717 218.232 319.636 217.009 312.693 214.205C305.809 211.4 300.452 207.045 296.621 201.137C292.79 195.23 290.905 187.772 290.965 178.762V49.3107Z" fill="url(#paint0_linear_3817_63263)"/>
<path d="M366.124 215.995C364.056 215.995 362.379 214.326 362.379 212.267V82.2474C362.379 80.1887 364.056 78.5199 366.124 78.5199H395.716C397.784 78.5199 399.461 80.1887 399.461 82.2474V102.506H400.898C403.412 93.9739 407.632 87.5297 413.557 83.174C419.483 78.7586 426.307 76.5508 434.029 76.5508C435.944 76.5508 438.009 76.6702 440.224 76.9088C441.276 77.0222 442.267 77.1558 443.198 77.3096C444.892 77.5896 446.06 79.0928 446.06 80.8027V106.713C446.06 109.211 443.62 111.065 441.143 110.663C440.354 110.535 439.509 110.412 438.608 110.293C435.435 109.875 432.532 109.667 429.899 109.667C424.272 109.667 419.244 110.89 414.814 113.336C410.445 115.723 406.973 119.064 404.399 123.36C401.885 127.656 400.628 132.609 400.628 138.218V212.267C400.628 214.326 398.952 215.995 396.884 215.995H366.124Z" fill="url(#paint1_linear_3817_63263)"/>
<path d="M456.938 215.995C454.87 215.995 453.194 214.326 453.194 212.267V82.2474C453.194 80.1887 454.87 78.5199 456.938 78.5199H485.903C487.971 78.5199 489.647 80.1887 489.647 82.2474V102.775H491.263C494.136 94.7197 498.925 88.3651 505.629 83.711C512.333 79.0569 520.354 76.7299 529.692 76.7299C539.149 76.7299 547.2 79.0867 553.845 83.8005C560.489 88.4546 564.918 94.7794 567.133 102.775H568.57C571.383 94.8987 576.471 88.6038 583.833 83.89C591.256 79.1166 600.025 76.7299 610.141 76.7299C623.01 76.7299 633.455 80.8171 641.476 88.9916C649.557 97.1064 653.597 108.622 653.597 123.539V212.267C653.597 214.326 651.921 215.995 649.853 215.995H619.183C617.115 215.995 615.438 214.326 615.438 212.267V131.057C615.438 123.42 613.403 117.692 609.333 113.873C605.262 110.054 600.174 108.145 594.069 108.145C587.125 108.145 581.708 110.353 577.818 114.768C573.927 119.124 571.981 124.882 571.981 132.042V212.267C571.981 214.326 570.305 215.995 568.237 215.995H538.644C536.576 215.995 534.9 214.326 534.9 212.267V130.252C534.9 123.509 532.954 118.139 529.063 114.142C525.233 110.144 520.175 108.145 513.889 108.145C509.64 108.145 505.809 109.219 502.397 111.367C499.045 113.455 496.381 116.409 494.406 120.228C492.43 123.987 491.443 128.402 491.443 133.474V212.267C491.443 214.326 489.766 215.995 487.698 215.995H456.938Z" fill="url(#paint2_linear_3817_63263)"/>
<path d="M728.963 218.68C714.776 218.68 702.565 215.816 692.33 210.088C682.154 204.3 674.312 196.125 668.806 185.564C663.299 174.943 660.545 162.383 660.545 147.884C660.545 133.743 663.299 121.332 668.806 110.651C674.312 99.9705 682.064 91.6468 692.06 85.68C702.116 79.7132 713.908 76.7299 727.436 76.7299C736.535 76.7299 745.004 78.1917 752.846 81.1154C760.747 83.9795 767.631 88.3054 773.497 94.0932C779.423 99.881 784.032 107.16 787.324 115.932C790.616 124.643 792.262 134.846 792.262 146.541V153.286C792.262 155.344 790.586 157.013 788.518 157.013H675.809V133.385H752.513C754.581 133.385 756.283 131.71 756.064 129.663C755.637 125.671 754.505 122.049 752.666 118.796C750.272 114.559 746.95 111.248 742.7 108.861C738.51 106.415 733.632 105.191 728.065 105.191C722.259 105.191 717.111 106.534 712.621 109.219C708.192 111.844 704.72 115.395 702.206 119.87C699.692 124.285 698.405 129.208 698.345 134.638V157.103C698.345 163.905 699.602 169.782 702.116 174.734C704.69 179.687 708.312 183.506 712.981 186.191C717.649 188.876 723.186 190.218 729.591 190.218C733.841 190.218 737.732 189.622 741.263 188.428C744.795 187.235 747.818 185.445 750.332 183.058C752.209 181.276 753.753 179.194 754.963 176.812C755.706 175.349 757.201 174.361 758.845 174.469L787.146 176.331C789.42 176.48 791.044 178.605 790.393 180.779C788.373 187.534 785.045 193.545 780.41 198.81C774.903 205.076 767.78 209.968 759.041 213.489C750.362 216.949 740.336 218.68 728.963 218.68Z" fill="url(#paint3_linear_3817_63263)"/>
<path d="M804.533 215.995C802.465 215.995 800.788 214.326 800.788 212.267V82.2474C800.788 80.1887 802.465 78.5199 804.533 78.5199H834.126C836.194 78.5199 837.87 80.1887 837.87 82.2474V102.506H839.307C841.821 93.9739 846.041 87.5297 851.967 83.174C857.893 78.7586 864.716 76.5508 872.438 76.5508C874.353 76.5508 876.419 76.6702 878.633 76.9088C879.685 77.0222 880.677 77.1558 881.607 77.3096C883.302 77.5896 884.469 79.0928 884.469 80.8027V106.713C884.469 109.211 882.029 111.065 879.552 110.663C878.763 110.535 877.918 110.412 877.017 110.293C873.845 109.875 870.942 109.667 868.308 109.667C862.681 109.667 857.653 110.89 853.224 113.336C848.854 115.723 845.382 119.064 842.808 123.36C840.294 127.656 839.037 132.609 839.037 138.218V212.267C839.037 214.326 837.361 215.995 835.293 215.995H804.533Z" fill="url(#paint4_linear_3817_63263)"/>
<path d="M896.612 215.995C894.544 215.995 892.867 214.326 892.867 212.267V82.2474C892.867 80.1887 894.544 78.5199 896.612 78.5199H927.372C929.44 78.5199 931.116 80.1887 931.116 82.2474V212.267C931.116 214.326 929.44 215.995 927.372 215.995H896.612ZM912.081 64.88C906.395 64.88 901.517 63.0005 897.446 59.2414C893.436 55.4226 891.431 50.858 891.431 45.5476C891.431 40.2968 893.436 35.7919 897.446 32.0328C901.517 28.2141 906.395 26.3047 912.081 26.3047C917.768 26.3047 922.616 28.2141 926.627 32.0328C930.697 35.7919 932.732 40.2968 932.732 45.5476C932.732 50.858 930.697 55.4226 926.627 59.2414C922.616 63.0005 917.768 64.88 912.081 64.88Z" fill="url(#paint5_linear_3817_63263)"/>
<path d="M1006.37 218.68C992.243 218.68 980.092 215.696 969.916 209.73C959.8 203.703 952.018 195.35 946.571 184.669C941.184 173.989 938.49 161.697 938.49 147.794C938.49 133.713 941.214 121.361 946.661 110.741C952.168 100.06 959.979 91.7363 970.095 85.7695C980.211 79.7431 992.243 76.7299 1006.19 76.7299C1018.22 76.7299 1028.76 78.9077 1037.79 83.2635C1046.83 87.6192 1053.99 93.7352 1059.25 101.611C1063.86 108.505 1065.69 116.449 1066.44 125.445C1066.62 127.57 1064.9 129.357 1062.76 129.357H1035.1C1033.24 129.357 1031.69 127.995 1031.26 126.198C1029.96 120.781 1027.47 116.314 1023.79 112.799C1019.48 108.563 1013.82 106.444 1006.82 106.444C1000.89 106.444 995.714 108.056 991.285 111.278C986.915 114.44 983.503 119.064 981.049 125.15C978.595 131.236 977.368 138.605 977.368 147.257C977.368 156.029 978.565 163.487 980.959 169.633C983.414 175.779 986.855 180.463 991.285 183.685C995.714 186.907 1000.89 188.518 1006.82 188.518C1011.19 188.518 1015.11 187.623 1018.58 185.833C1022.11 184.043 1025.01 181.447 1027.29 178.046C1029.1 175.364 1030.42 172.27 1031.26 168.764C1031.69 166.966 1033.24 165.605 1035.1 165.605H1062.74C1064.89 165.605 1066.6 167.407 1066.42 169.54C1065.63 178.432 1063.84 186.369 1059.34 193.351C1054.26 201.287 1047.22 207.492 1038.24 211.967C1029.26 216.442 1018.64 218.68 1006.37 218.68Z" fill="url(#paint6_linear_3817_63263)"/>
<defs>
<linearGradient id="paint0_linear_3817_63263" x1="272.109" y1="122.492" x2="1066.45" y2="122.492" gradientUnits="userSpaceOnUse">
<stop stop-color="#FFA426"/>
<stop offset="1" stop-color="#F89622"/>
</linearGradient>
<linearGradient id="paint1_linear_3817_63263" x1="272.109" y1="122.492" x2="1066.45" y2="122.492" gradientUnits="userSpaceOnUse">
<stop stop-color="#FFA426"/>
<stop offset="1" stop-color="#F89622"/>
</linearGradient>
<linearGradient id="paint2_linear_3817_63263" x1="272.109" y1="122.492" x2="1066.45" y2="122.492" gradientUnits="userSpaceOnUse">
<stop stop-color="#FFA426"/>
<stop offset="1" stop-color="#F89622"/>
</linearGradient>
<linearGradient id="paint3_linear_3817_63263" x1="272.109" y1="122.492" x2="1066.45" y2="122.492" gradientUnits="userSpaceOnUse">
<stop stop-color="#FFA426"/>
<stop offset="1" stop-color="#F89622"/>
</linearGradient>
<linearGradient id="paint4_linear_3817_63263" x1="272.109" y1="122.492" x2="1066.45" y2="122.492" gradientUnits="userSpaceOnUse">
<stop stop-color="#FFA426"/>
<stop offset="1" stop-color="#F89622"/>
</linearGradient>
<linearGradient id="paint5_linear_3817_63263" x1="272.109" y1="122.492" x2="1066.45" y2="122.492" gradientUnits="userSpaceOnUse">
<stop stop-color="#FFA426"/>
<stop offset="1" stop-color="#F89622"/>
</linearGradient>
<linearGradient id="paint6_linear_3817_63263" x1="272.109" y1="122.492" x2="1066.45" y2="122.492" gradientUnits="userSpaceOnUse">
<stop stop-color="#FFA426"/>
<stop offset="1" stop-color="#F89622"/>
</linearGradient>
</defs>
</svg>
